<svg width="411" height="115" viewBox="0 0 411 115" fill="none" xmlns="http://www.w3.org/2000/svg">
    <path
        d="M46.187 15.8456C38.6129 16.456 35.131 20.5482 35.7414 28.1223C43.3155 27.5119 46.7974 23.4197 46.187 15.8456Z"
        fill="black" />
    <path
        d="M48.301 33.1247C42.2165 28.573 36.8984 29.3394 32.3467 35.4239C38.4312 39.9756 43.7493 39.2092 48.301 33.1247Z"
        fill="black" />
    <path
        d="M24.3935 20.1889C31.555 22.7291 33.8656 27.5799 31.3254 34.7414C24.1639 32.2012 21.8533 27.3504 24.3935 20.1889Z"
        fill="black" />
    <path
        d="M43.0851 43.3864C36.2232 40.1226 31.1603 41.9216 27.8964 48.7836C34.7584 52.0475 39.8213 50.2484 43.0851 43.3864Z"
        fill="black" />
    <path
        d="M19.5506 34.1967C26.7548 36.613 29.1488 41.4232 26.7325 48.6275C19.5283 46.2112 17.1343 41.4009 19.5506 34.1967Z"
        fill="black" />
    <path
        d="M41.9801 53.9667C34.6984 51.7948 29.9717 54.3497 27.7998 61.6314C35.0815 63.8032 39.8082 61.2483 41.9801 53.9667Z"
        fill="black" />
    <path
        d="M15.47 49.6512C23.0642 49.9091 26.7324 53.8352 26.4745 61.4295C18.8802 61.1716 15.2121 57.2455 15.47 49.6512Z"
        fill="black" />
    <path
        d="M47.6705 72.1161C40.2956 73.9465 37.5233 78.5491 39.3537 85.924C46.7286 84.0936 49.5008 79.491 47.6705 72.1161Z"
        fill="black" />
    <path
        d="M23.2322 81.4302C30.1147 78.2098 35.1661 80.0409 38.3865 86.9234C31.504 90.1438 26.4525 88.3127 23.2322 81.4302Z"
        fill="black" />
    <path
        d="M44.2604 63.9885C36.764 62.7459 32.3945 65.8728 31.1519 73.3691C38.6483 74.6117 43.0178 71.4849 44.2604 63.9885Z"
        fill="black" />
    <path
        d="M16.3396 65.0473C23.7496 63.3648 28.2959 66.2285 29.9784 73.6386C22.5684 75.3211 18.0221 72.4573 16.3396 65.0473Z"
        fill="black" />
    <path
        d="M52.2062 80.6145C46.3203 85.4204 45.7803 90.7662 50.5862 96.6521C56.472 91.8462 57.012 86.5004 52.2062 80.6145Z"
        fill="black" />
    <path
        d="M33.1501 95.3903C39.132 90.7045 44.4658 91.3525 49.1516 97.3344C43.1697 102.02 37.8359 101.372 33.1501 95.3903Z"
        fill="black" />
    <path
        d="M364.295 15.8456C371.869 16.456 375.351 20.5482 374.74 28.1223C367.166 27.5119 363.684 23.4197 364.295 15.8456Z"
        fill="black" />
    <path
        d="M362.181 33.1247C368.265 28.573 373.583 29.3394 378.135 35.4239C372.05 39.9756 366.732 39.2092 362.181 33.1247Z"
        fill="black" />
    <path
        d="M386.089 20.1889C378.927 22.7291 376.616 27.5799 379.157 34.7414C386.318 32.2012 388.629 27.3504 386.089 20.1889Z"
        fill="black" />
    <path
        d="M367.397 43.3864C374.259 40.1226 379.322 41.9216 382.586 48.7836C375.724 52.0475 370.661 50.2484 367.397 43.3864Z"
        fill="black" />
    <path
        d="M390.931 34.1967C383.727 36.613 381.333 41.4232 383.75 48.6275C390.954 46.2112 393.348 41.4009 390.931 34.1967Z"
        fill="black" />
    <path
        d="M368.502 53.9667C375.783 51.7948 380.51 54.3497 382.682 61.6314C375.4 63.8032 370.673 61.2483 368.502 53.9667Z"
        fill="black" />
    <path
        d="M395.012 49.6512C387.417 49.9091 383.749 53.8352 384.007 61.4295C391.601 61.1716 395.27 57.2455 395.012 49.6512Z"
        fill="black" />
    <path
        d="M362.812 72.1161C370.186 73.9465 372.959 78.5491 371.128 85.924C363.754 84.0936 360.981 79.491 362.812 72.1161Z"
        fill="black" />
    <path
        d="M387.25 81.4302C380.367 78.2098 375.316 80.0409 372.096 86.9234C378.978 90.1438 384.03 88.3127 387.25 81.4302Z"
        fill="black" />
    <path
        d="M366.222 63.9885C373.718 62.7459 378.088 65.8728 379.33 73.3691C371.834 74.6117 367.464 71.4849 366.222 63.9885Z"
        fill="black" />
    <path
        d="M394.142 65.0473C386.732 63.3648 382.186 66.2285 380.504 73.6386C387.914 75.3211 392.46 72.4573 394.142 65.0473Z"
        fill="black" />
    <path
        d="M358.276 80.6145C364.162 85.4204 364.702 90.7662 359.896 96.6521C354.01 91.8462 353.47 86.5004 358.276 80.6145Z"
        fill="black" />
    <path
        d="M377.332 95.3903C371.35 90.7045 366.016 91.3525 361.33 97.3344C367.312 102.02 372.646 101.372 377.332 95.3903Z"
        fill="black" />
    <path
        d="M70.7406 61.6327L59.8606 44.3527H66.1406L74.5806 58.1927H70.9806L79.4206 44.3527H85.6206L74.6206 61.6327H70.7406ZM70.0206 72.4727V58.7127H75.5006V72.4727H70.0206ZM91.9078 72.8727C89.9611 72.8727 88.2011 72.4327 86.6278 71.5527C85.0811 70.646 83.8411 69.4327 82.9078 67.9127C82.0011 66.366 81.5478 64.646 81.5478 62.7527C81.5478 60.8593 82.0011 59.166 82.9078 57.6727C83.8145 56.1527 85.0545 54.9527 86.6278 54.0727C88.2011 53.166 89.9478 52.7127 91.8678 52.7127C93.8411 52.7127 95.6011 53.166 97.1478 54.0727C98.7211 54.9527 99.9611 56.1527 100.868 57.6727C101.774 59.166 102.228 60.8593 102.228 62.7527C102.228 64.646 101.774 66.366 100.868 67.9127C99.9611 69.4327 98.7211 70.646 97.1478 71.5527C95.6011 72.4327 93.8545 72.8727 91.9078 72.8727ZM91.8678 67.9927C92.8545 67.9927 93.7211 67.7793 94.4678 67.3527C95.2411 66.8993 95.8278 66.286 96.2278 65.5127C96.6545 64.7127 96.8678 63.806 96.8678 62.7927C96.8678 61.7793 96.6545 60.886 96.2278 60.1127C95.8011 59.3393 95.2145 58.7393 94.4678 58.3127C93.7211 57.8593 92.8545 57.6327 91.8678 57.6327C90.9078 57.6327 90.0545 57.8593 89.3078 58.3127C88.5611 58.7393 87.9745 59.3393 87.5478 60.1127C87.1211 60.886 86.9078 61.7793 86.9078 62.7927C86.9078 63.806 87.1211 64.7127 87.5478 65.5127C87.9745 66.286 88.5611 66.8993 89.3078 67.3527C90.0545 67.7793 90.9078 67.9927 91.8678 67.9927ZM113.841 72.8727C112.135 72.8727 110.615 72.5127 109.281 71.7927C107.975 71.0727 106.948 70.0727 106.201 68.7927C105.455 67.5127 105.081 66.0327 105.081 64.3527V53.1527H110.361V64.2327C110.361 65.0327 110.495 65.726 110.761 66.3127C111.028 66.8727 111.428 67.2993 111.961 67.5927C112.495 67.886 113.121 68.0327 113.841 68.0327C114.935 68.0327 115.788 67.6993 116.401 67.0327C117.015 66.366 117.321 65.4327 117.321 64.2327V53.1527H122.561V64.3527C122.561 66.0593 122.188 67.5527 121.441 68.8327C120.721 70.1127 119.695 71.1127 118.361 71.8327C117.055 72.526 115.548 72.8727 113.841 72.8727ZM126.734 72.4727V53.1527H131.974V72.4727H126.734ZM131.974 61.7927L129.934 60.4327C130.174 58.0593 130.867 56.1927 132.014 54.8327C133.161 53.446 134.814 52.7527 136.974 52.7527C137.907 52.7527 138.747 52.9127 139.494 53.2327C140.241 53.526 140.921 54.0193 141.534 54.7127L138.254 58.4727C137.961 58.1527 137.601 57.9127 137.174 57.7527C136.774 57.5927 136.307 57.5127 135.774 57.5127C134.654 57.5127 133.734 57.8727 133.014 58.5927C132.321 59.286 131.974 60.3527 131.974 61.7927ZM148.378 72.4727L141.138 53.1527H146.418L151.138 67.1927L149.538 67.2327L154.378 53.1527H158.178L163.018 67.2327L161.418 67.1927L166.138 53.1527H171.418L164.218 72.4727H160.418L155.538 59.1127H157.018L152.138 72.4727H148.378ZM181.611 72.8727C179.851 72.8727 178.264 72.4327 176.851 71.5527C175.438 70.6727 174.331 69.4727 173.531 67.9527C172.731 66.4327 172.331 64.726 172.331 62.8327C172.331 60.9127 172.731 59.1927 173.531 57.6727C174.331 56.1527 175.438 54.9527 176.851 54.0727C178.264 53.1927 179.851 52.7527 181.611 52.7527C182.998 52.7527 184.238 53.0327 185.331 53.5927C186.424 54.1527 187.291 54.9393 187.931 55.9527C188.598 56.9393 188.958 58.0593 189.011 59.3127V66.2727C188.958 67.5527 188.598 68.686 187.931 69.6727C187.291 70.6593 186.424 71.446 185.331 72.0327C184.238 72.5927 182.998 72.8727 181.611 72.8727ZM182.571 68.0327C184.038 68.0327 185.224 67.5527 186.131 66.5927C187.038 65.606 187.491 64.3393 187.491 62.7927C187.491 61.7793 187.278 60.886 186.851 60.1127C186.451 59.3127 185.878 58.6993 185.131 58.2727C184.411 57.8193 183.558 57.5927 182.571 57.5927C181.611 57.5927 180.758 57.8193 180.011 58.2727C179.291 58.6993 178.718 59.3127 178.291 60.1127C177.891 60.886 177.691 61.7793 177.691 62.7927C177.691 63.8327 177.891 64.7527 178.291 65.5527C178.718 66.326 179.291 66.9393 180.011 67.3927C180.758 67.8193 181.611 68.0327 182.571 68.0327ZM187.211 72.4727V67.2727L188.051 62.5527L187.211 57.9127V53.1527H192.411V72.4727H187.211ZM197.047 72.4727V53.1527H202.287V72.4727H197.047ZM202.287 61.7927L200.247 60.4327C200.487 58.0593 201.18 56.1927 202.327 54.8327C203.473 53.446 205.127 52.7527 207.287 52.7527C208.22 52.7527 209.06 52.9127 209.807 53.2327C210.553 53.526 211.233 54.0193 211.847 54.7127L208.567 58.4727C208.273 58.1527 207.913 57.9127 207.487 57.7527C207.087 57.5927 206.62 57.5127 206.087 57.5127C204.967 57.5127 204.047 57.8727 203.327 58.5927C202.633 59.286 202.287 60.3527 202.287 61.7927ZM222.38 72.8727C220.354 72.8727 218.554 72.446 216.98 71.5927C215.407 70.7127 214.154 69.5127 213.22 67.9927C212.314 66.4727 211.86 64.7393 211.86 62.7927C211.86 60.8727 212.3 59.166 213.18 57.6727C214.087 56.1527 215.314 54.9527 216.86 54.0727C218.407 53.166 220.127 52.7127 222.02 52.7127C223.887 52.7127 225.527 53.1393 226.94 53.9927C228.38 54.8193 229.5 55.966 230.3 57.4327C231.127 58.8727 231.54 60.5127 231.54 62.3527C231.54 62.6993 231.514 63.0593 231.46 63.4327C231.434 63.7793 231.367 64.1793 231.26 64.6327L215.02 64.6727V60.7527L228.82 60.7127L226.7 62.3527C226.647 61.206 226.434 60.246 226.06 59.4727C225.714 58.6993 225.194 58.1127 224.5 57.7127C223.834 57.286 223.007 57.0727 222.02 57.0727C220.98 57.0727 220.074 57.3127 219.3 57.7927C218.527 58.246 217.927 58.8993 217.5 59.7527C217.1 60.5793 216.9 61.566 216.9 62.7127C216.9 63.886 217.114 64.9127 217.54 65.7927C217.994 66.646 218.634 67.3127 219.46 67.7927C220.287 68.246 221.247 68.4727 222.34 68.4727C223.327 68.4727 224.22 68.3127 225.02 67.9927C225.82 67.646 226.514 67.1393 227.1 66.4727L230.18 69.5527C229.247 70.646 228.1 71.4727 226.74 72.0327C225.407 72.5927 223.954 72.8727 222.38 72.8727ZM249.488 72.4727V44.9527H254.968V72.4727H249.488ZM240.528 49.1927V44.3527H263.928V49.1927H240.528ZM271.4 72.8727C269.453 72.8727 267.693 72.4327 266.12 71.5527C264.573 70.646 263.333 69.4327 262.4 67.9127C261.493 66.366 261.04 64.646 261.04 62.7527C261.04 60.8593 261.493 59.166 262.4 57.6727C263.307 56.1527 264.547 54.9527 266.12 54.0727C267.693 53.166 269.44 52.7127 271.36 52.7127C273.333 52.7127 275.093 53.166 276.64 54.0727C278.213 54.9527 279.453 56.1527 280.36 57.6727C281.267 59.166 281.72 60.8593 281.72 62.7527C281.72 64.646 281.267 66.366 280.36 67.9127C279.453 69.4327 278.213 70.646 276.64 71.5527C275.093 72.4327 273.347 72.8727 271.4 72.8727ZM271.36 67.9927C272.347 67.9927 273.213 67.7793 273.96 67.3527C274.733 66.8993 275.32 66.286 275.72 65.5127C276.147 64.7127 276.36 63.806 276.36 62.7927C276.36 61.7793 276.147 60.886 275.72 60.1127C275.293 59.3393 274.707 58.7393 273.96 58.3127C273.213 57.8593 272.347 57.6327 271.36 57.6327C270.4 57.6327 269.547 57.8593 268.8 58.3127C268.053 58.7393 267.467 59.3393 267.04 60.1127C266.613 60.886 266.4 61.7793 266.4 62.7927C266.4 63.806 266.613 64.7127 267.04 65.5127C267.467 66.286 268.053 66.8993 268.8 67.3527C269.547 67.7793 270.4 67.9927 271.36 67.9927ZM293.253 72.8727C291.467 72.8727 289.867 72.4327 288.453 71.5527C287.04 70.6727 285.92 69.4727 285.093 67.9527C284.293 66.4327 283.893 64.726 283.893 62.8327C283.893 60.9127 284.293 59.1927 285.093 57.6727C285.92 56.1527 287.027 54.9527 288.413 54.0727C289.827 53.1927 291.44 52.7527 293.253 52.7527C294.64 52.7527 295.88 53.0327 296.973 53.5927C298.093 54.1527 298.987 54.9393 299.653 55.9527C300.347 56.9393 300.72 58.0593 300.773 59.3127V66.1927C300.72 67.446 300.36 68.5793 299.693 69.5927C299.027 70.606 298.133 71.406 297.013 71.9927C295.893 72.5793 294.64 72.8727 293.253 72.8727ZM294.133 68.0327C295.12 68.0327 295.973 67.8193 296.693 67.3927C297.44 66.9393 298.013 66.326 298.413 65.5527C298.84 64.7527 299.053 63.8327 299.053 62.7927C299.053 61.7793 298.84 60.886 298.413 60.1127C298.013 59.3127 297.44 58.6993 296.693 58.2727C295.973 57.8193 295.133 57.5927 294.173 57.5927C293.187 57.5927 292.32 57.8193 291.573 58.2727C290.853 58.726 290.28 59.3393 289.853 60.1127C289.453 60.886 289.253 61.7793 289.253 62.7927C289.253 63.8327 289.453 64.7527 289.853 65.5527C290.28 66.326 290.867 66.9393 291.613 67.3927C292.36 67.8193 293.2 68.0327 294.133 68.0327ZM303.973 72.4727H298.773V67.2727L299.613 62.5527L298.733 57.9127V43.5527H303.973V72.4727ZM316.689 72.8727C314.929 72.8727 313.342 72.4327 311.929 71.5527C310.516 70.6727 309.409 69.4727 308.609 67.9527C307.809 66.4327 307.409 64.726 307.409 62.8327C307.409 60.9127 307.809 59.1927 308.609 57.6727C309.409 56.1527 310.516 54.9527 311.929 54.0727C313.342 53.1927 314.929 52.7527 316.689 52.7527C318.076 52.7527 319.316 53.0327 320.409 53.5927C321.502 54.1527 322.369 54.9393 323.009 55.9527C323.676 56.9393 324.036 58.0593 324.089 59.3127V66.2727C324.036 67.5527 323.676 68.686 323.009 69.6727C322.369 70.6593 321.502 71.446 320.409 72.0327C319.316 72.5927 318.076 72.8727 316.689 72.8727ZM317.649 68.0327C319.116 68.0327 320.302 67.5527 321.209 66.5927C322.116 65.606 322.569 64.3393 322.569 62.7927C322.569 61.7793 322.356 60.886 321.929 60.1127C321.529 59.3127 320.956 58.6993 320.209 58.2727C319.489 57.8193 318.636 57.5927 317.649 57.5927C316.689 57.5927 315.836 57.8193 315.089 58.2727C314.369 58.6993 313.796 59.3127 313.369 60.1127C312.969 60.886 312.769 61.7793 312.769 62.7927C312.769 63.8327 312.969 64.7527 313.369 65.5527C313.796 66.326 314.369 66.9393 315.089 67.3927C315.836 67.8193 316.689 68.0327 317.649 68.0327ZM322.289 72.4727V67.2727L323.129 62.5527L322.289 57.9127V53.1527H327.489V72.4727H322.289ZM338.205 72.6327L330.125 53.1527H335.805L341.165 68.0327H339.245L344.805 53.1527H350.525L341.925 72.6327H338.205ZM332.845 80.5527L338.725 68.1127L341.925 72.6327L338.405 80.5527H332.845Z"
        fill="black" />
</svg>