<svg xmlns="http://www.w3.org/2000/svg" viewBox="0 0 60 90" fill="none">
  <path d="M38.8781 15.4493C33.4249 15.8887 30.918 18.8351 31.3575 24.2883C36.8107 23.8489 39.3176 20.9025 38.8781 15.4493Z" fill="#CCAE5B"/>
  <path d="M40.3986 27.8898C36.0179 24.6127 32.1889 25.1645 28.9118 29.5453C33.2925 32.8224 37.1215 32.2706 40.3986 27.8898Z" fill="#CCAE5B"/>
  <path d="M23.1858 18.5763C28.342 20.4052 30.0056 23.8977 28.1767 29.0539C23.0205 27.225 21.3569 23.7324 23.1858 18.5763Z" fill="#CCAE5B"/>
  <path d="M36.6438 35.2781C31.7032 32.9282 28.058 34.2235 25.7081 39.164C30.6486 41.5139 34.2938 40.2186 36.6438 35.2781Z" fill="#CCAE5B"/>
  <path d="M19.699 28.6617C24.886 30.4014 26.6096 33.8647 24.8699 39.0516C19.683 37.3119 17.9594 33.8486 19.699 28.6617Z" fill="#CCAE5B"/>
  <path d="M35.8489 42.8957C30.6062 41.3321 27.203 43.1716 25.6394 48.4142C30.882 49.9779 34.2852 48.1384 35.8489 42.8957Z" fill="#CCAE5B"/>
  <path d="M16.7607 39.7887C22.2284 39.9743 24.8694 42.8011 24.6838 48.2688C19.216 48.0831 16.575 45.2564 16.7607 39.7887Z" fill="#CCAE5B"/>
  <path d="M39.9463 55.9631C34.6365 57.2809 32.6405 60.5947 33.9583 65.9045C39.2681 64.5867 41.2641 61.2729 39.9463 55.9631Z" fill="#CCAE5B"/>
  <path d="M22.3501 62.669C27.3054 60.3504 30.9423 61.6688 33.2609 66.6241C28.3056 68.9427 24.6687 67.6243 22.3501 62.669Z" fill="#CCAE5B"/>
  <path d="M37.4893 50.1114C32.092 49.2167 28.946 51.468 28.0514 56.8653C33.4486 57.7599 36.5946 55.5086 37.4893 50.1114Z" fill="#CCAE5B"/>
  <path d="M17.3882 50.8736C22.7233 49.6622 25.9965 51.7241 27.2079 57.0592C21.8728 58.2706 18.5996 56.2087 17.3882 50.8736Z" fill="#CCAE5B"/>
  <path d="M43.211 62.0818C38.9732 65.5419 38.5844 69.3908 42.0446 73.6286C46.2823 70.1684 46.6711 66.3195 43.211 62.0818Z" fill="#CCAE5B"/>
  <path d="M29.4906 72.7201C33.7974 69.3464 37.6377 69.813 41.0114 74.1198C36.7045 77.4935 32.8643 77.0269 29.4906 72.7201Z" fill="#CCAE5B"/>
</svg>